<?xml version="1.0" standalone="no"?>
<!DOCTYPE svg PUBLIC "-//W3C//DTD SVG 20010904//EN"
 "http://www.w3.org/TR/2001/REC-SVG-20010904/DTD/svg10.dtd">
<svg version="1.0" xmlns="http://www.w3.org/2000/svg"
 width="1024.000000pt" height="1024.000000pt" viewBox="0 0 1024.000000 1024.000000"
 preserveAspectRatio="xMidYMid meet">
<metadata>
Created by potrace 1.11, written by Peter Selinger 2001-2013
</metadata>
<g transform="translate(0.000000,1024.000000) scale(0.100000,-0.100000)"
fill="#000000" stroke="none">
<path d="M1987 10221 c-38 -9 -66 -19 -63 -22 4 -4 -5 -4 -20 -1 -19 3 -25 1
-20 -6 5 -8 2 -10 -8 -6 -17 6 -109 -19 -244 -68 -60 -22 -80 -33 -70 -40 9
-7 6 -7 -9 -3 -38 11 -306 -127 -473 -243 -99 -69 -202 -153 -196 -160 8 -7
-54 -72 -68 -72 -6 0 7 16 29 35 22 19 35 34 30 35 -6 0 -29 -18 -50 -40 -21
-22 -35 -40 -30 -40 5 0 -19 -29 -55 -65 -35 -35 -66 -62 -70 -60 -9 6 -85
-73 -78 -80 3 -4 18 10 33 30 15 19 30 33 33 30 8 -8 -59 -75 -69 -69 -9 5
-90 -94 -161 -196 -116 -167 -254 -435 -243 -473 4 -15 4 -18 -3 -9 -7 10 -18
-10 -40 -70 -49 -135 -74 -227 -68 -244 4 -10 2 -13 -6 -8 -7 5 -9 -1 -6 -19
3 -15 2 -24 -2 -22 -4 3 -18 -48 -31 -113 l-24 -117 0 -2975 0 -2975 24 -117
c13 -65 27 -116 31 -113 4 2 5 -7 2 -22 -4 -19 -2 -24 8 -18 9 5 11 4 6 -4
-11 -17 14 -112 27 -104 6 3 7 1 3 -5 -11 -18 26 -125 37 -110 6 9 7 7 3 -6
-9 -26 44 -161 56 -144 6 9 7 6 4 -7 -12 -42 144 -322 277 -500 87 -117 167
-208 175 -200 8 7 152 -136 146 -146 -6 -10 80 -86 196 -173 177 -134 463
-292 505 -280 14 4 16 2 7 -4 -14 -10 30 -29 203 -88 61 -21 110 -32 125 -29
17 4 20 3 12 -3 -16 -11 -29 -7 185 -51 l152 -31 2931 0 2931 0 152 31 c214
44 201 40 185 51 -8 6 -5 7 12 3 15 -3 64 8 125 29 173 59 217 78 203 88 -9 6
-6 7 9 3 26 -7 224 92 358 179 157 103 351 259 341 275 -6 10 138 153 146 146
13 -13 173 185 274 340 87 134 186 332 179 358 -4 15 -3 18 3 9 10 -14 29 30
88 203 21 61 32 110 29 125 -4 17 -3 20 3 12 11 -16 7 -29 51 185 l31 152 0
2941 0 2941 -30 150 c-17 82 -30 153 -30 157 0 4 -5 0 -10 -8 -7 -11 -8 -5 -3
19 4 24 3 32 -5 27 -8 -4 -10 -2 -6 8 9 22 -48 189 -59 173 -6 -8 -7 -6 -3 7
9 26 -44 161 -56 144 -6 -9 -7 -6 -4 7 12 42 -144 322 -278 501 -87 117 -175
216 -185 209 -10 -5 -133 119 -126 127 8 8 -94 99 -209 184 -179 134 -459 290
-501 278 -14 -4 -16 -2 -7 4 22 15 -323 138 -360 128 -11 -2 -15 0 -12 6 5 7
-2 9 -19 6 -15 -3 -24 -2 -22 2 2 4 -31 14 -73 23 -71 16 -324 17 -3132 16
-2791 -1 -3061 -3 -3123 -18z m-687 -275 c0 -2 -7 -7 -16 -10 -8 -3 -12 -2 -9
4 6 10 25 14 25 6z m-70 -40 c0 -2 -7 -7 -16 -10 -8 -3 -12 -2 -9 4 6 10 25
14 25 6z m7805 -6 c3 -6 -1 -7 -9 -4 -18 7 -21 14 -7 14 6 0 13 -4 16 -10z
m-7875 -34 c0 -2 -18 -15 -40 -30 -22 -14 -40 -24 -40 -22 0 5 71 56 77 56 2
0 3 -2 3 -4z m7995 -43 c11 -7 16 -13 12 -13 -10 0 -87 51 -87 57 0 5 27 -11
75 -44z m-8095 -27 c0 -2 -12 -11 -27 -20 l-28 -17 24 20 c23 21 31 25 31 17z
m-80 -61 c-7 -8 -17 -15 -23 -15 -6 0 -2 7 9 15 25 19 30 19 14 0z m8333 -32
c16 -13 25 -23 20 -23 -4 1 -26 17 -48 37 -40 36 -25 28 28 -14z m-8383 -8
c-7 -8 -17 -15 -23 -15 -6 0 -2 7 9 15 25 19 30 19 14 0z m8484 -84 c-2 -3
-19 10 -37 28 l-32 34 37 -29 c20 -15 35 -30 32 -33z m206 -203 l33 -43 -36
34 c-32 30 -46 51 -34 51 2 0 19 -19 37 -42z m-9054 -76 c-17 -16 -18 -16 -5
5 7 12 15 20 18 17 3 -2 -3 -12 -13 -22z m9153 -47 c8 -11 -2 -2 -22 20 -20
22 -36 44 -37 48 0 8 33 -30 59 -68z m-9193 -3 c-17 -16 -18 -16 -5 5 7 12 15
20 18 17 3 -2 -3 -12 -13 -22z m-42 -57 c-9 -14 -18 -25 -21 -25 -5 0 5 18 20
38 17 22 18 13 1 -13z m9376 -142 c0 -4 -16 16 -35 44 -19 29 -35 56 -35 60 0
4 16 -16 35 -44 19 -29 35 -56 35 -60z m-9436 57 c-15 -22 -29 -40 -31 -40 -5
0 3 15 29 53 30 43 31 32 2 -13z m-61 -95 c-3 -9 -8 -14 -10 -11 -3 3 -2 9 2
15 9 16 15 13 8 -4z m9525 -10 c-3 -3 -9 2 -12 12 -6 14 -5 15 5 6 7 -7 10
-15 7 -18z m-9565 -60 c-3 -9 -8 -14 -10 -11 -3 3 -2 9 2 15 9 16 15 13 8 -4z
m9874 -747 c-3 -8 -6 -5 -6 6 -1 11 2 17 5 13 3 -3 4 -12 1 -19z m-10170 -120
c-3 -8 -6 -5 -6 6 -1 11 2 17 5 13 3 -3 4 -12 1 -19z m10190 0 c-3 -8 -6 -5
-6 6 -1 11 2 17 5 13 3 -3 4 -12 1 -19z m-10200 -90 c-3 -7 -5 -2 -5 12 0 14
2 19 5 13 2 -7 2 -19 0 -25z m10210 10 c-3 -8 -6 -5 -6 6 -1 11 2 17 5 13 3
-3 4 -12 1 -19z m-6776 -1803 c47 -24 78 -54 99 -95 10 -19 154 -379 320 -800
166 -421 305 -768 309 -772 4 -4 148 335 321 755 172 419 324 783 336 808 26
52 81 105 122 116 15 5 86 8 159 8 118 0 134 -2 160 -21 15 -11 34 -32 40 -45
10 -19 13 -250 13 -1021 l0 -997 -22 -13 c-14 -8 -59 -13 -118 -13 -59 0 -104
5 -117 13 l-23 13 0 927 c-1 843 -2 924 -16 892 -9 -19 -175 -430 -369 -912
-195 -482 -359 -886 -364 -897 -16 -30 -74 -44 -158 -39 -55 4 -79 10 -93 24
-11 10 -177 428 -370 928 -193 501 -353 912 -355 915 -3 2 -5 -410 -5 -917 l0
-921 -22 -13 c-31 -17 -205 -17 -235 0 l-23 13 0 995 c0 896 2 999 16 1030 9
19 17 34 18 34 0 0 19 7 41 15 56 22 288 14 336 -10z m3730 6 c22 -18 24 -27
24 -104 0 -56 -4 -89 -14 -100 -12 -15 -47 -17 -322 -17 l-309 0 0 -925 0
-924 -21 -12 c-52 -27 -214 -23 -244 7 -13 14 -15 128 -15 935 l0 919 -305 0
-305 0 -14 23 c-32 52 -26 177 10 204 14 10 165 13 755 13 711 0 738 -1 760
-19z m-7164 -4013 c-3 -7 -5 -2 -5 12 0 14 2 19 5 13 2 -7 2 -19 0 -25z
m10210 -10 c-3 -7 -5 -2 -5 12 0 14 2 19 5 13 2 -7 2 -19 0 -25z m-10200 -70
c-3 -8 -6 -5 -6 6 -1 11 2 17 5 13 3 -3 4 -12 1 -19z m10190 0 c-3 -8 -6 -5
-6 6 -1 11 2 17 5 13 3 -3 4 -12 1 -19z m-20 -120 c-3 -8 -6 -5 -6 6 -1 11 2
17 5 13 3 -3 4 -12 1 -19z m-286 -761 c-10 -9 -11 -8 -5 6 3 10 9 15 12 12 3
-3 0 -11 -7 -18z m-9547 -43 c3 -8 2 -12 -4 -9 -6 3 -10 10 -10 16 0 14 7 11
14 -7z m86 -141 c0 -4 -16 16 -35 44 -19 29 -35 56 -35 60 0 4 16 -16 35 -44
19 -29 35 -56 35 -60z m9371 38 c-23 -34 -44 -61 -46 -61 -3 0 14 29 37 64 24
35 45 63 46 61 2 -2 -15 -31 -37 -64z m-68 -96 c-3 -9 -8 -14 -10 -11 -3 3 -2
9 2 15 9 16 15 13 8 -4z m-9173 -108 c0 -5 -10 4 -23 20 -42 53 -50 68 -14 28
20 -22 36 -44 37 -48z m9143 68 c-3 -9 -8 -14 -10 -11 -3 3 -2 9 2 15 9 16 15
13 8 -4z m-40 -49 c-10 -13 -20 -22 -22 -20 -4 4 29 44 36 44 2 0 -4 -11 -14
-24z m-9034 -100 c-3 -3 -18 12 -33 32 l-29 37 34 -32 c18 -18 31 -35 28 -37z
m8974 29 c-15 -19 -29 -32 -32 -29 -4 4 48 64 56 64 2 0 -9 -16 -24 -35z
m-8757 -237 l29 -33 -30 25 c-16 14 -34 28 -39 32 -6 5 -6 8 0 8 6 0 23 -15
40 -32z m8549 24 c-6 -4 -23 -18 -40 -32 l-30 -25 29 33 c17 17 34 32 40 32 6
0 6 -3 1 -8z m-8460 -99 c40 -36 25 -28 -28 14 -16 13 -25 23 -20 23 4 -1 26
-17 48 -37z m8384 34 c-2 -1 -15 -11 -29 -22 l-25 -20 19 23 c11 12 24 22 29
22 6 0 8 -1 6 -3z m-8314 -87 c3 -6 -1 -7 -9 -4 -18 7 -21 14 -7 14 6 0 13 -4
16 -10z m8215 6 c0 -2 -7 -7 -16 -10 -8 -3 -12 -2 -9 4 6 10 25 14 25 6z
m-8065 -114 c-4 -4 -125 77 -125 83 0 3 29 -14 64 -37 35 -24 63 -45 61 -46z
m8015 83 c0 -6 -117 -85 -127 -85 -6 0 115 87 125 89 1 1 2 -1 2 -4z m-7965
-113 c-3 -3 -11 0 -18 7 -9 10 -8 11 6 5 10 -3 15 -9 12 -12z m50 -30 c-3 -3
-11 0 -18 7 -9 10 -8 11 6 5 10 -3 15 -9 12 -12z m7710 8 c-3 -5 -12 -10 -18
-10 -7 0 -6 4 3 10 19 12 23 12 15 0z m-110 -60 c-3 -5 -12 -10 -18 -10 -7 0
-6 4 3 10 19 12 23 12 15 0z m-6838 -226 c-3 -3 -12 -4 -19 -1 -8 3 -5 6 6 6
11 1 17 -2 13 -5z m6190 0 c-3 -3 -12 -4 -19 -1 -8 3 -5 6 6 6 11 1 17 -2 13
-5z m-6070 -20 c-3 -3 -12 -4 -19 -1 -8 3 -5 6 6 6 11 1 17 -2 13 -5z m5950 0
c-3 -3 -12 -4 -19 -1 -8 3 -5 6 6 6 11 1 17 -2 13 -5z m-5874 -11 c-7 -2 -19
-2 -25 0 -7 3 -2 5 12 5 14 0 19 -2 13 -5z m5800 0 c-7 -2 -19 -2 -25 0 -7 3
-2 5 12 5 14 0 19 -2 13 -5z"/>
<path d="M720 9535 c-29 -30 -52 -57 -49 -59 3 -3 32 21 64 54 33 33 55 60 49
60 -5 0 -34 -25 -64 -55z"/>
<path d="M9505 9530 c32 -33 61 -57 64 -54 6 6 -100 114 -113 114 -6 0 16 -27
49 -60z"/>
<path d="M660 794 c0 -13 128 -139 134 -133 3 3 -26 36 -64 74 -39 38 -70 65
-70 59z"/>
<path d="M9505 730 c-38 -39 -65 -70 -59 -70 13 0 139 128 133 134 -3 3 -36
-26 -74 -64z"/>
</g>
</svg>
